# xmcd
#
# Track frame offsets:
#	150
#	24335
#	45883
#	69146
#	94381
#	124359
#	150851
#	177165
#	193442
#	219516
#	233798
#	254302
#	277631
#	303794
#
# Disc length: 4514 seconds
#
# Revision: 1
# Processed by: cddbd v1.4PL0 Copyright (c) Steve Scherf et al.
# Submitted via: audiograbber 1.80
#
DISCID=ad11a00e
DTITLE=No Standing on Steps - Live in Worms
DYEAR=1900
DGENRE=
TTITLE0=Intro
TTITLE1=Love funk
TTITLE2=Chewing Caramel
TTITLE3=in your eyes
TTITLE4=for you
TTITLE5=in memory of JB
TTITLE6=do you feel
TTITLE7=spanish inspirations
TTITLE8=always there
TTITLE9=cocochi
TTITLE10=sunny day
TTITLE11=a long time
TTITLE12=no sos
TTITLE13=move your body
EXTD=
EXTT0=
EXTT1=
EXTT2=
EXTT3=
EXTT4=
EXTT5=
EXTT6=
EXTT7=
EXTT8=
EXTT9=
EXTT10=
EXTT11=
EXTT12=
EXTT13=
PLAYORDER=
